<svg width="1690" height="428" viewBox="0 0 1690 428" fill="none" xmlns="http://www.w3.org/2000/svg">
<path d="M387.02 290C384.26 290 381.86 288.98 379.82 286.94C377.78 284.9 376.76 282.5 376.76 279.74V168.86C376.76 166.1 377.78 163.7 379.82 161.66C381.86 159.62 384.26 158.6 387.02 158.6H387.2C389.96 158.6 392.36 159.62 394.4 161.66C396.44 163.7 397.46 166.1 397.46 168.86V271.82C397.46 272.9 397.94 273.44 398.9 273.44H449.48C451.76 273.44 453.68 274.28 455.24 275.96C456.92 277.52 457.76 279.44 457.76 281.72C457.76 284 456.92 285.98 455.24 287.66C453.68 289.22 451.76 290 449.48 290H387.02ZM513.44 208.64C499.76 208.64 492.08 216.74 490.4 232.94C490.16 234.02 490.64 234.56 491.84 234.56H532.16C533.12 234.56 533.6 234.02 533.6 232.94C532.88 216.74 526.16 208.64 513.44 208.64ZM517.94 291.8C502.94 291.8 491.36 287.72 483.2 279.56C475.16 271.4 471.14 259.28 471.14 243.2C471.14 227.12 474.74 215 481.94 206.84C489.26 198.68 499.76 194.6 513.44 194.6C538.4 194.6 551.3 209.24 552.14 238.52C552.26 241.4 551.24 243.8 549.08 245.72C546.92 247.64 544.4 248.6 541.52 248.6H491.66C490.7 248.6 490.22 249.08 490.22 250.04C491.66 268.52 501.5 277.76 519.74 277.76C526.1 277.76 532.34 276.74 538.46 274.7C540.26 274.1 541.94 274.34 543.5 275.42C545.06 276.5 545.84 278 545.84 279.92C545.84 282.2 545.12 284.24 543.68 286.04C542.24 287.84 540.38 289.04 538.1 289.64C531.5 291.08 524.78 291.8 517.94 291.8ZM616.814 242.84C606.974 242.84 599.534 244.52 594.494 247.88C589.574 251.12 587.114 255.56 587.114 261.2C587.114 265.64 588.434 269.3 591.074 272.18C593.714 275.06 596.894 276.5 600.614 276.5C608.534 276.5 614.834 274.04 619.514 269.12C624.314 264.08 626.714 257.24 626.714 248.6V244.28C626.714 243.32 626.174 242.84 625.094 242.84H616.814ZM596.114 291.8C587.954 291.8 581.234 289.16 575.954 283.88C570.794 278.6 568.214 271.64 568.214 263C568.214 252.44 572.234 244.28 580.274 238.52C588.314 232.64 600.494 229.7 616.814 229.7H625.094C626.174 229.7 626.714 229.16 626.714 228.08V226.1C626.714 219.74 625.214 215.3 622.214 212.78C619.214 210.26 613.814 209 606.014 209C599.054 209 590.774 210.44 581.174 213.32C579.374 213.92 577.634 213.68 575.954 212.6C574.394 211.4 573.614 209.84 573.614 207.92C573.614 205.52 574.334 203.36 575.774 201.44C577.214 199.52 579.074 198.32 581.354 197.84C589.994 195.68 598.214 194.6 606.014 194.6C621.134 194.6 631.514 197.3 637.154 202.7C642.794 208.1 645.614 218 645.614 232.4V281.18C645.614 283.58 644.714 285.68 642.914 287.48C641.234 289.16 639.194 290 636.794 290C634.394 290 632.294 289.16 630.494 287.48C628.814 285.68 627.914 283.58 627.794 281.18L627.614 276.68C627.614 276.56 627.554 276.5 627.434 276.5C627.194 276.5 627.074 276.56 627.074 276.68C620.114 286.76 609.794 291.8 596.114 291.8ZM687.544 287.12C685.624 289.04 683.284 290 680.524 290C677.764 290 675.424 289.04 673.504 287.12C671.584 285.2 670.624 282.86 670.624 280.1V205.76C670.624 203.12 671.524 200.9 673.324 199.1C675.124 197.3 677.344 196.4 679.984 196.4C682.624 196.4 684.844 197.3 686.644 199.1C688.564 200.9 689.524 203.12 689.524 205.76V214.22C689.524 214.34 689.584 214.4 689.704 214.4C689.944 214.4 690.064 214.34 690.064 214.22C693.664 209.3 698.464 205.28 704.464 202.16C710.464 198.92 717.004 197.06 724.084 196.58C726.244 196.46 728.044 197.12 729.484 198.56C731.044 200 731.824 201.8 731.824 203.96C731.824 206.12 731.044 207.98 729.484 209.54C728.044 210.98 726.244 211.76 724.084 211.88C712.564 212.36 704.044 215.36 698.524 220.88C693.124 226.28 690.424 234.32 690.424 245V280.1C690.424 282.86 689.464 285.2 687.544 287.12ZM770.32 287.3C768.52 289.1 766.3 290 763.66 290C761.02 290 758.74 289.1 756.82 287.3C755.02 285.5 754.12 283.28 754.12 280.64V205.22C754.12 202.82 754.96 200.78 756.64 199.1C758.44 197.3 760.54 196.4 762.94 196.4C765.34 196.4 767.38 197.3 769.06 199.1C770.86 200.78 771.82 202.82 771.94 205.22L772.12 207.92C772.12 208.04 772.18 208.1 772.3 208.1C772.42 208.1 772.54 208.04 772.66 207.92C781.18 199.04 790.9 194.6 801.82 194.6C812.74 194.6 820.72 197.72 825.76 203.96C830.8 210.08 833.32 220.16 833.32 234.2V280.82C833.32 283.34 832.42 285.5 830.62 287.3C828.82 289.1 826.66 290 824.14 290C821.62 290 819.4 289.1 817.48 287.3C815.68 285.5 814.78 283.34 814.78 280.82V236.9C814.78 226.1 813.46 218.78 810.82 214.94C808.18 210.98 803.38 209 796.42 209C790.78 209 785.44 211.52 780.4 216.56C775.48 221.48 773.02 226.76 773.02 232.4V280.64C773.02 283.28 772.12 285.5 770.32 287.3Z" fill="#2D3748"/>
<path d="M953.82 176.78L934.92 238.16C934.8 238.52 934.86 238.88 935.1 239.24C935.34 239.48 935.64 239.6 936 239.6H972C972.36 239.6 972.66 239.48 972.9 239.24C973.14 238.88 973.2 238.52 973.08 238.16L954.18 176.78C954.18 176.66 954.12 176.6 954 176.6C953.88 176.6 953.82 176.66 953.82 176.78ZM908.82 290C906.3 290 904.26 288.98 902.7 286.94C901.26 284.9 900.96 282.68 901.8 280.28L940.32 168.32C941.28 165.44 943.02 163.1 945.54 161.3C948.06 159.5 950.82 158.6 953.82 158.6H954.9C958.02 158.6 960.78 159.5 963.18 161.3C965.7 163.1 967.44 165.44 968.4 168.32L1006.92 280.28C1007.76 282.68 1007.4 284.9 1005.84 286.94C1004.4 288.98 1002.42 290 999.9 290H999.18C996.18 290 993.42 289.1 990.9 287.3C988.5 285.5 986.82 283.16 985.86 280.28L978.66 256.52C978.54 255.56 977.88 255.08 976.68 255.08H931.32C930.24 255.08 929.58 255.56 929.34 256.52L922.14 280.28C921.3 283.16 919.62 285.5 917.1 287.3C914.7 289.1 911.94 290 908.82 290ZM1031.5 280.1L1012.24 206.3C1011.64 203.78 1012.12 201.5 1013.68 199.46C1015.36 197.42 1017.46 196.4 1019.98 196.4C1022.98 196.4 1025.62 197.36 1027.9 199.28C1030.18 201.2 1031.62 203.6 1032.22 206.48L1045.9 273.62C1045.9 273.74 1045.96 273.8 1046.08 273.8C1046.2 273.8 1046.26 273.74 1046.26 273.62L1059.4 206.48C1060 203.6 1061.44 201.2 1063.72 199.28C1066.12 197.36 1068.76 196.4 1071.64 196.4H1076.32C1079.32 196.4 1081.96 197.36 1084.24 199.28C1086.64 201.2 1088.08 203.6 1088.56 206.48L1101.7 273.62C1101.7 273.74 1101.76 273.8 1101.88 273.8C1102 273.8 1102.06 273.74 1102.06 273.62L1115.74 206.12C1116.34 203.36 1117.72 201.08 1119.88 199.28C1122.16 197.36 1124.74 196.4 1127.62 196.4C1130.14 196.4 1132.18 197.42 1133.74 199.46C1135.3 201.38 1135.72 203.54 1135 205.94L1115.74 280.1C1115.02 282.98 1113.46 285.38 1111.06 287.3C1108.66 289.1 1105.96 290 1102.96 290H1099.18C1096.3 290 1093.66 289.04 1091.26 287.12C1088.98 285.2 1087.54 282.8 1086.94 279.92L1073.8 214.58C1073.8 214.46 1073.74 214.4 1073.62 214.4C1073.5 214.4 1073.44 214.46 1073.44 214.58L1060.3 279.92C1059.82 282.8 1058.38 285.2 1055.98 287.12C1053.7 289.04 1051.06 290 1048.06 290H1044.28C1041.4 290 1038.7 289.1 1036.18 287.3C1033.78 285.38 1032.22 282.98 1031.5 280.1ZM1189.14 208.64C1175.46 208.64 1167.78 216.74 1166.1 232.94C1165.86 234.02 1166.34 234.56 1167.54 234.56H1207.86C1208.82 234.56 1209.3 234.02 1209.3 232.94C1208.58 216.74 1201.86 208.64 1189.14 208.64ZM1193.64 291.8C1178.64 291.8 1167.06 287.72 1158.9 279.56C1150.86 271.4 1146.84 259.28 1146.84 243.2C1146.84 227.12 1150.44 215 1157.64 206.84C1164.96 198.68 1175.46 194.6 1189.14 194.6C1214.1 194.6 1227 209.24 1227.84 238.52C1227.96 241.4 1226.94 243.8 1224.78 245.72C1222.62 247.64 1220.1 248.6 1217.22 248.6H1167.36C1166.4 248.6 1165.92 249.08 1165.92 250.04C1167.36 268.52 1177.2 277.76 1195.44 277.76C1201.8 277.76 1208.04 276.74 1214.16 274.7C1215.96 274.1 1217.64 274.34 1219.2 275.42C1220.76 276.5 1221.54 278 1221.54 279.92C1221.54 282.2 1220.82 284.24 1219.38 286.04C1217.94 287.84 1216.08 289.04 1213.8 289.64C1207.2 291.08 1200.48 291.8 1193.64 291.8ZM1279.02 250.4C1266.78 247.4 1258.14 243.62 1253.1 239.06C1248.18 234.38 1245.72 228.56 1245.72 221.6C1245.72 213.2 1248.72 206.6 1254.72 201.8C1260.84 197 1269.84 194.6 1281.72 194.6C1289.4 194.6 1297.14 195.44 1304.94 197.12C1307.1 197.6 1308.84 198.8 1310.16 200.72C1311.6 202.52 1312.32 204.56 1312.32 206.84C1312.32 208.76 1311.54 210.26 1309.98 211.34C1308.42 212.42 1306.74 212.66 1304.94 212.06C1297.38 210.02 1290.24 209 1283.52 209C1270.92 209 1264.62 212.6 1264.62 219.8C1264.62 223.4 1265.82 226.34 1268.22 228.62C1270.62 230.9 1274.82 232.76 1280.82 234.2C1294.62 237.44 1303.92 241.34 1308.72 245.9C1313.52 250.34 1315.92 256.94 1315.92 265.7C1315.92 273.86 1312.74 280.28 1306.38 284.96C1300.14 289.52 1291.02 291.8 1279.02 291.8C1271.22 291.8 1263.42 290.78 1255.62 288.74C1253.46 288.14 1251.72 286.94 1250.4 285.14C1249.08 283.22 1248.42 281.12 1248.42 278.84C1248.42 277.04 1249.14 275.6 1250.58 274.52C1252.14 273.44 1253.76 273.2 1255.44 273.8C1262.88 276.2 1270.14 277.4 1277.22 277.4C1290.42 277.4 1297.02 273.5 1297.02 265.7C1297.02 261.98 1295.7 258.98 1293.06 256.7C1290.42 254.3 1285.74 252.2 1279.02 250.4ZM1401.76 243.2C1401.76 220.4 1393.48 209 1376.92 209C1360.36 209 1352.08 220.4 1352.08 243.2C1352.08 266 1360.36 277.4 1376.92 277.4C1393.48 277.4 1401.76 266 1401.76 243.2ZM1409.32 279.2C1401.52 287.6 1390.72 291.8 1376.92 291.8C1363.12 291.8 1352.32 287.6 1344.52 279.2C1336.72 270.68 1332.82 258.68 1332.82 243.2C1332.82 227.72 1336.72 215.78 1344.52 207.38C1352.32 198.86 1363.12 194.6 1376.92 194.6C1390.72 194.6 1401.52 198.86 1409.32 207.38C1417.12 215.78 1421.02 227.72 1421.02 243.2C1421.02 258.68 1417.12 270.68 1409.32 279.2ZM1456.74 287.3C1454.94 289.1 1452.72 290 1450.08 290C1447.44 290 1445.22 289.1 1443.42 287.3C1441.62 285.5 1440.72 283.28 1440.72 280.64V205.4C1440.72 202.88 1441.56 200.78 1443.24 199.1C1445.04 197.3 1447.2 196.4 1449.72 196.4C1452.24 196.4 1454.4 197.3 1456.2 199.1C1458 200.78 1458.96 202.88 1459.08 205.4V207.02C1459.08 207.14 1459.14 207.2 1459.26 207.2C1459.5 207.2 1459.62 207.14 1459.62 207.02C1466.7 198.74 1474.5 194.6 1483.02 194.6C1488.3 194.6 1492.56 195.68 1495.8 197.84C1499.04 200 1501.86 203.66 1504.26 208.82C1504.26 208.94 1504.38 209 1504.62 209C1504.74 209 1504.86 208.94 1504.98 208.82C1512.06 199.34 1520.46 194.6 1530.18 194.6C1540.02 194.6 1547.04 197.3 1551.24 202.7C1555.56 207.98 1557.72 217.28 1557.72 230.6V280.64C1557.72 283.16 1556.76 285.38 1554.84 287.3C1553.04 289.1 1550.88 290 1548.36 290C1545.84 290 1543.68 289.1 1541.88 287.3C1540.08 285.38 1539.18 283.16 1539.18 280.64V236C1539.18 225.08 1538.16 217.88 1536.12 214.4C1534.08 210.8 1530.3 209 1524.78 209C1521.3 209 1517.7 210.8 1513.98 214.4C1510.38 218 1508.58 221.6 1508.58 225.2V280.64C1508.58 283.16 1507.68 285.38 1505.88 287.3C1504.08 289.1 1501.92 290 1499.4 290C1496.88 290 1494.66 289.1 1492.74 287.3C1490.94 285.38 1490.04 283.16 1490.04 280.64V236C1490.04 225.08 1489.02 217.88 1486.98 214.4C1484.94 210.8 1481.16 209 1475.64 209C1472.16 209 1468.62 210.8 1465.02 214.4C1461.42 218 1459.62 221.6 1459.62 225.2V280.64C1459.62 283.28 1458.66 285.5 1456.74 287.3ZM1618.75 208.64C1605.07 208.64 1597.39 216.74 1595.71 232.94C1595.47 234.02 1595.95 234.56 1597.15 234.56H1637.47C1638.43 234.56 1638.91 234.02 1638.91 232.94C1638.19 216.74 1631.47 208.64 1618.75 208.64ZM1623.25 291.8C1608.25 291.8 1596.67 287.72 1588.51 279.56C1580.47 271.4 1576.45 259.28 1576.45 243.2C1576.45 227.12 1580.05 215 1587.25 206.84C1594.57 198.68 1605.07 194.6 1618.75 194.6C1643.71 194.6 1656.61 209.24 1657.45 238.52C1657.57 241.4 1656.55 243.8 1654.39 245.72C1652.23 247.64 1649.71 248.6 1646.83 248.6H1596.97C1596.01 248.6 1595.53 249.08 1595.53 250.04C1596.97 268.52 1606.81 277.76 1625.05 277.76C1631.41 277.76 1637.65 276.74 1643.77 274.7C1645.57 274.1 1647.25 274.34 1648.81 275.42C1650.37 276.5 1651.15 278 1651.15 279.92C1651.15 282.2 1650.43 284.24 1648.99 286.04C1647.55 287.84 1645.69 289.04 1643.41 289.64C1636.81 291.08 1630.09 291.8 1623.25 291.8Z" fill="#4C51BF"/>
<g clip-path="url(#clip0)">
<path d="M145.965 124.209C148.617 122.994 151.667 122.997 154.316 124.217L280.174 182.205C287.947 185.786 287.923 196.84 280.135 200.387L154.277 257.716C151.65 258.912 148.634 258.915 146.004 257.724L19.4866 200.396C11.6748 196.856 11.6509 185.77 19.4473 182.196L145.965 124.209Z" fill="#4C51BF"/>
<path d="M78.744 246.611L147.844 274.846C150.319 275.857 153.095 275.835 155.553 274.786L221.541 246.611L223.894 312.517H74.821L78.744 246.611Z" fill="#4C51BF"/>
<path d="M223.894 314.871C223.894 341.737 178.577 350.178 151.712 350.178C124.846 350.178 74.821 341.737 74.821 314.871C74.821 288.005 123.276 279.564 150.142 279.564C177.008 279.564 223.894 288.005 223.894 314.871Z" fill="#4C51BF"/>
<path d="M48.9295 197.036C48.9295 194.083 51.323 191.689 54.2756 191.689V191.689C57.0287 191.689 59.3316 193.78 59.5968 196.521L61.3217 214.344C61.4285 215.448 61.3509 216.563 61.092 217.641L57.0516 234.476C56.8682 235.241 56.7755 236.024 56.7755 236.81V280.349L64.7692 343.632C65.5236 349.605 60.8682 354.886 54.848 354.886H42.5866C36.4418 354.886 31.7506 349.396 32.709 343.326L42.5304 281.124C42.6118 280.608 42.6527 280.087 42.6527 279.564V234.826C42.6527 232.757 42.9737 230.701 43.6043 228.73L48.4537 213.576C48.769 212.591 48.9295 211.562 48.9295 210.528V197.036Z" fill="#4C51BF"/>
<path d="M62.2676 254.457C62.2676 263.124 58.3804 274.072 49.714 274.072C41.0476 274.072 37.9451 263.124 37.9451 254.457C37.9451 245.791 41.0476 238.765 49.714 238.765C58.3804 238.765 62.2676 245.791 62.2676 254.457Z" fill="#4C51BF"/>
</g>
<defs>
<clipPath id="clip0">
<rect y="64" width="300" height="300" fill="white"/>
</clipPath>
</defs>
</svg>
